<mxfile host="65bd71144e">
    <diagram id="9naDba06JYet_HRVibqf" name="SignUp">
        <mxGraphModel dx="2411" dy="1666" grid="1" gridSize="10" guides="1" tooltips="1" connect="1" arrows="1" fold="1" page="1" pageScale="1" pageWidth="850" pageHeight="1100" math="0" shadow="0">
            <root>
                <mxCell id="0"/>
                <mxCell id="1" parent="0"/>
                <mxCell id="72" value="" style="rounded=0;whiteSpace=wrap;html=1;fillColor=#e6d0de;strokeColor=#996185;gradientColor=#d5739d;" vertex="1" parent="1">
                    <mxGeometry x="330" y="370" width="320" height="185" as="geometry"/>
                </mxCell>
                <mxCell id="30" value="" style="rounded=0;whiteSpace=wrap;html=1;fillColor=none;" vertex="1" parent="1">
                    <mxGeometry x="-80" y="180" width="160" height="75" as="geometry"/>
                </mxCell>
                <mxCell id="2" value="" style="rounded=0;whiteSpace=wrap;html=1;fillColor=#d5e8d4;strokeColor=#82b366;gradientColor=#97d077;" vertex="1" parent="1">
                    <mxGeometry x="120" y="180" width="530" height="140" as="geometry"/>
                </mxCell>
                <mxCell id="33" value="" style="rounded=0;whiteSpace=wrap;html=1;fillColor=#fff2cc;gradientColor=#ffd966;strokeColor=#d6b656;" vertex="1" parent="1">
                    <mxGeometry x="680" y="180" width="195" height="140" as="geometry"/>
                </mxCell>
                <mxCell id="6" style="edgeStyle=none;html=1;strokeColor=#000000;fontColor=#000000;" edge="1" parent="1" source="3" target="4">
                    <mxGeometry relative="1" as="geometry"/>
                </mxCell>
                <mxCell id="20" style="edgeStyle=none;html=1;strokeColor=#000000;fontColor=#000000;" edge="1" parent="1" source="3" target="19">
                    <mxGeometry relative="1" as="geometry"/>
                </mxCell>
                <mxCell id="37" style="edgeStyle=orthogonalEdgeStyle;html=1;entryX=0;entryY=0.5;entryDx=0;entryDy=0;rounded=0;strokeColor=#000000;" edge="1" parent="1" source="3" target="32">
                    <mxGeometry relative="1" as="geometry"/>
                </mxCell>
                <mxCell id="3" value="SignUpController" style="rounded=0;whiteSpace=wrap;html=1;fillColor=none;strokeColor=#000000;fontColor=#000000;" vertex="1" parent="1">
                    <mxGeometry x="327.5" y="195" width="105" height="40" as="geometry"/>
                </mxCell>
                <mxCell id="4" value="Controller" style="rounded=0;whiteSpace=wrap;html=1;fillColor=none;dashed=1;strokeColor=#000000;fontColor=#000000;" vertex="1" parent="1">
                    <mxGeometry x="327.5" y="280" width="105" height="30" as="geometry"/>
                </mxCell>
                <mxCell id="7" value="Presentation" style="text;html=1;strokeColor=none;fillColor=none;align=center;verticalAlign=middle;whiteSpace=wrap;rounded=0;dashed=1;" vertex="1" parent="1">
                    <mxGeometry x="570" y="150" width="80" height="30" as="geometry"/>
                </mxCell>
                <mxCell id="8" value="Usa interface" style="text;html=1;strokeColor=none;fillColor=none;align=center;verticalAlign=middle;whiteSpace=wrap;rounded=0;dashed=1;fontColor=#000000;" vertex="1" parent="1">
                    <mxGeometry x="390" y="240" width="60" height="30" as="geometry"/>
                </mxCell>
                <mxCell id="74" style="edgeStyle=orthogonalEdgeStyle;rounded=0;html=1;fontColor=#FFFFFF;strokeColor=#000000;" edge="1" parent="1" source="9" target="4">
                    <mxGeometry relative="1" as="geometry"/>
                </mxCell>
                <mxCell id="77" style="edgeStyle=orthogonalEdgeStyle;rounded=0;html=1;fontColor=#FFFFFF;strokeColor=#000000;" edge="1" parent="1" source="9" target="14">
                    <mxGeometry relative="1" as="geometry"/>
                </mxCell>
                <mxCell id="9" value="&lt;font color=&quot;#000000&quot;&gt;ExpressRouteAdapter&lt;/font&gt;" style="rounded=0;whiteSpace=wrap;html=1;fillColor=none;strokeColor=#000000;" vertex="1" parent="1">
                    <mxGeometry x="465" y="385" width="130" height="60" as="geometry"/>
                </mxCell>
                <mxCell id="12" value="Precisa de uma classe do tipo Controller" style="text;html=1;strokeColor=none;fillColor=none;align=center;verticalAlign=middle;whiteSpace=wrap;rounded=0;" vertex="1" parent="1">
                    <mxGeometry x="385" y="330" width="175" height="30" as="geometry"/>
                </mxCell>
                <mxCell id="13" value="O adapter que aponta e olha para a presentation layer, sendo que o Presentation não conhece nenhum detalhe de fora" style="text;html=1;strokeColor=none;fillColor=none;align=center;verticalAlign=middle;whiteSpace=wrap;rounded=0;" vertex="1" parent="1">
                    <mxGeometry x="-230" y="410" width="240" height="35" as="geometry"/>
                </mxCell>
                <mxCell id="14" value="&lt;font color=&quot;#000000&quot;&gt;Express&lt;/font&gt;" style="rounded=0;whiteSpace=wrap;html=1;fillColor=none;strokeColor=#000000;" vertex="1" parent="1">
                    <mxGeometry x="470" y="500" width="120" height="40" as="geometry"/>
                </mxCell>
                <mxCell id="16" value="&lt;font color=&quot;#000000&quot;&gt;Implenta&lt;/font&gt;" style="text;html=1;strokeColor=none;fillColor=none;align=center;verticalAlign=middle;whiteSpace=wrap;rounded=0;dashed=1;" vertex="1" parent="1">
                    <mxGeometry x="465" y="470" width="60" height="30" as="geometry"/>
                </mxCell>
                <mxCell id="17" value="O Adapter fica acoplado com o Express" style="text;html=1;strokeColor=none;fillColor=none;align=center;verticalAlign=middle;whiteSpace=wrap;rounded=0;dashed=1;" vertex="1" parent="1">
                    <mxGeometry x="672.5" y="410" width="170" height="30" as="geometry"/>
                </mxCell>
                <mxCell id="18" value="Se precisar trocar o Express por outro framework basta trocar o Adapter" style="text;html=1;strokeColor=none;fillColor=none;align=center;verticalAlign=middle;whiteSpace=wrap;rounded=0;" vertex="1" parent="1">
                    <mxGeometry x="-210" y="520" width="180" height="30" as="geometry"/>
                </mxCell>
                <mxCell id="19" value="EmailValidator" style="rounded=0;whiteSpace=wrap;html=1;fillColor=none;dashed=1;strokeColor=#000000;fontColor=#000000;" vertex="1" parent="1">
                    <mxGeometry x="130" y="195" width="100" height="40" as="geometry"/>
                </mxCell>
                <mxCell id="23" style="edgeStyle=none;html=1;entryX=0;entryY=0.5;entryDx=0;entryDy=0;" edge="1" parent="1" source="22" target="19">
                    <mxGeometry relative="1" as="geometry"/>
                </mxCell>
                <mxCell id="26" style="edgeStyle=none;html=1;" edge="1" parent="1" source="22" target="24">
                    <mxGeometry relative="1" as="geometry"/>
                </mxCell>
                <mxCell id="22" value="EmailValidatorAdapter" style="rounded=0;whiteSpace=wrap;html=1;fillColor=none;" vertex="1" parent="1">
                    <mxGeometry x="-60" y="193.75" width="120" height="42.5" as="geometry"/>
                </mxCell>
                <mxCell id="24" value="Validator" style="rounded=0;whiteSpace=wrap;html=1;fillColor=none;" vertex="1" parent="1">
                    <mxGeometry x="-230" y="195" width="110" height="45" as="geometry"/>
                </mxCell>
                <mxCell id="27" value="Usa interface" style="text;html=1;strokeColor=none;fillColor=none;align=center;verticalAlign=middle;whiteSpace=wrap;rounded=0;dashed=1;fontColor=#000000;" vertex="1" parent="1">
                    <mxGeometry x="250" y="180" width="60" height="30" as="geometry"/>
                </mxCell>
                <mxCell id="31" value="Utils" style="text;html=1;strokeColor=none;fillColor=none;align=center;verticalAlign=middle;whiteSpace=wrap;rounded=0;dashed=1;" vertex="1" parent="1">
                    <mxGeometry y="150" width="80" height="30" as="geometry"/>
                </mxCell>
                <mxCell id="32" value="AddAccount" style="rounded=0;whiteSpace=wrap;html=1;fillColor=none;dashed=1;strokeColor=#000000;fontColor=#000000;" vertex="1" parent="1">
                    <mxGeometry x="725" y="236.25" width="105" height="30" as="geometry"/>
                </mxCell>
                <mxCell id="34" value="Domain" style="text;html=1;strokeColor=none;fillColor=none;align=center;verticalAlign=middle;whiteSpace=wrap;rounded=0;dashed=1;" vertex="1" parent="1">
                    <mxGeometry x="810" y="150" width="65" height="30" as="geometry"/>
                </mxCell>
                <mxCell id="35" value="O Domain não vai ter implementações, mas protocolos/interfaces que dizem qual regra de negócio a aplicação possui&amp;nbsp;" style="text;html=1;strokeColor=none;fillColor=none;align=center;verticalAlign=middle;whiteSpace=wrap;rounded=0;" vertex="1" parent="1">
                    <mxGeometry x="890" y="195" width="220" height="30" as="geometry"/>
                </mxCell>
                <mxCell id="38" value="" style="rounded=0;whiteSpace=wrap;html=1;fillColor=#f8cecc;gradientColor=#ea6b66;strokeColor=#000000;fontColor=#000000;" vertex="1" parent="1">
                    <mxGeometry x="120" y="-20" width="530" height="140" as="geometry"/>
                </mxCell>
                <mxCell id="39" value="Data" style="text;html=1;strokeColor=none;fillColor=none;align=center;verticalAlign=middle;whiteSpace=wrap;rounded=0;dashed=1;" vertex="1" parent="1">
                    <mxGeometry x="610" y="-50" width="40" height="30" as="geometry"/>
                </mxCell>
                <mxCell id="40" value="Data layer faz implementações da regra de negócio estabelecida na camada Domain" style="text;html=1;strokeColor=none;fillColor=none;align=center;verticalAlign=middle;whiteSpace=wrap;rounded=0;" vertex="1" parent="1">
                    <mxGeometry x="270" y="130" width="220" height="30" as="geometry"/>
                </mxCell>
                <mxCell id="42" style="edgeStyle=orthogonalEdgeStyle;rounded=0;html=1;exitX=1;exitY=0.75;exitDx=0;exitDy=0;strokeColor=#000000;" edge="1" parent="1" source="41" target="32">
                    <mxGeometry relative="1" as="geometry"/>
                </mxCell>
                <mxCell id="56" style="edgeStyle=orthogonalEdgeStyle;rounded=0;html=1;strokeColor=#000000;fontColor=#000000;" edge="1" parent="1" source="41" target="54">
                    <mxGeometry relative="1" as="geometry"/>
                </mxCell>
                <mxCell id="66" style="edgeStyle=orthogonalEdgeStyle;rounded=0;html=1;strokeColor=#000000;fontColor=#000000;" edge="1" parent="1" source="41" target="65">
                    <mxGeometry relative="1" as="geometry"/>
                </mxCell>
                <mxCell id="83" style="edgeStyle=orthogonalEdgeStyle;rounded=0;html=1;fontColor=#000000;strokeColor=#000000;" edge="1" parent="1" source="41" target="80">
                    <mxGeometry relative="1" as="geometry"/>
                </mxCell>
                <mxCell id="41" value="DbAddAccount" style="rounded=0;whiteSpace=wrap;html=1;fillColor=none;strokeColor=#000000;fontColor=#000000;" vertex="1" parent="1">
                    <mxGeometry x="327.5" y="70" width="105" height="40" as="geometry"/>
                </mxCell>
                <mxCell id="43" value="Implementa Interface" style="text;html=1;strokeColor=none;fillColor=none;align=center;verticalAlign=middle;whiteSpace=wrap;rounded=0;dashed=1;" vertex="1" parent="1">
                    <mxGeometry x="700" y="10" width="60" height="30" as="geometry"/>
                </mxCell>
                <mxCell id="45" value="Bcrypt" style="rounded=0;whiteSpace=wrap;html=1;fillColor=none;" vertex="1" parent="1">
                    <mxGeometry x="200" y="-270" width="110" height="45" as="geometry"/>
                </mxCell>
                <mxCell id="47" value="" style="rounded=0;whiteSpace=wrap;html=1;fillColor=#dae8fc;gradientColor=#7ea6e0;strokeColor=#6c8ebf;" vertex="1" parent="1">
                    <mxGeometry x="120" y="-150" width="520" height="75" as="geometry"/>
                </mxCell>
                <mxCell id="57" style="edgeStyle=orthogonalEdgeStyle;rounded=0;html=1;strokeColor=#000000;" edge="1" parent="1" source="48" target="54">
                    <mxGeometry relative="1" as="geometry"/>
                </mxCell>
                <mxCell id="88" style="edgeStyle=orthogonalEdgeStyle;rounded=0;html=1;entryX=0.5;entryY=1;entryDx=0;entryDy=0;fontColor=#000000;strokeColor=#000000;" edge="1" parent="1" source="48" target="45">
                    <mxGeometry relative="1" as="geometry"/>
                </mxCell>
                <mxCell id="48" value="BcryptAdapter" style="rounded=0;whiteSpace=wrap;html=1;fillColor=none;fontColor=#000000;strokeColor=#000000;" vertex="1" parent="1">
                    <mxGeometry x="140" y="-136.25" width="120" height="42.5" as="geometry"/>
                </mxCell>
                <mxCell id="50" value="Infra" style="text;html=1;strokeColor=none;fillColor=none;align=center;verticalAlign=middle;whiteSpace=wrap;rounded=0;dashed=1;" vertex="1" parent="1">
                    <mxGeometry x="570" y="-190" width="80" height="30" as="geometry"/>
                </mxCell>
                <mxCell id="51" value="Infra layer faz Implementação de interfaces voltadas para frameworks" style="text;html=1;strokeColor=none;fillColor=none;align=center;verticalAlign=middle;whiteSpace=wrap;rounded=0;" vertex="1" parent="1">
                    <mxGeometry x="-120" y="-127.5" width="220" height="30" as="geometry"/>
                </mxCell>
                <mxCell id="54" value="Encrypter" style="rounded=0;whiteSpace=wrap;html=1;fillColor=none;dashed=1;strokeColor=#000000;fontColor=#000000;" vertex="1" parent="1">
                    <mxGeometry x="150" y="5" width="100" height="40" as="geometry"/>
                </mxCell>
                <mxCell id="58" value="Usa interface" style="text;html=1;strokeColor=none;fillColor=none;align=center;verticalAlign=middle;whiteSpace=wrap;rounded=0;dashed=1;fontColor=#000000;" vertex="1" parent="1">
                    <mxGeometry x="240" y="60" width="60" height="30" as="geometry"/>
                </mxCell>
                <mxCell id="59" value="Implementa Interface" style="text;html=1;strokeColor=none;fillColor=none;align=center;verticalAlign=middle;whiteSpace=wrap;rounded=0;" vertex="1" parent="1">
                    <mxGeometry x="130" y="-60" width="60" height="30" as="geometry"/>
                </mxCell>
                <mxCell id="61" value="Data layer não pode conhecer nenhuma implementação de framework externo, isto é, a camada de infra. Já a camada de infra conhece a Data layer" style="text;html=1;strokeColor=none;fillColor=none;align=center;verticalAlign=middle;whiteSpace=wrap;rounded=0;" vertex="1" parent="1">
                    <mxGeometry x="-105" y="50" width="220" height="30" as="geometry"/>
                </mxCell>
                <mxCell id="64" style="edgeStyle=orthogonalEdgeStyle;rounded=0;html=1;strokeColor=#000000;" edge="1" parent="1" source="62" target="63">
                    <mxGeometry relative="1" as="geometry"/>
                </mxCell>
                <mxCell id="67" style="edgeStyle=orthogonalEdgeStyle;rounded=0;html=1;strokeColor=#000000;" edge="1" parent="1" source="62" target="65">
                    <mxGeometry relative="1" as="geometry"/>
                </mxCell>
                <mxCell id="62" value="AddUserMongoRepo" style="rounded=0;whiteSpace=wrap;html=1;fillColor=none;fontColor=#000000;strokeColor=#000000;" vertex="1" parent="1">
                    <mxGeometry x="500" y="-136.25" width="120" height="42.5" as="geometry"/>
                </mxCell>
                <mxCell id="63" value="MongoDb" style="rounded=0;whiteSpace=wrap;html=1;fillColor=none;" vertex="1" parent="1">
                    <mxGeometry x="415" y="-235" width="110" height="45" as="geometry"/>
                </mxCell>
                <mxCell id="65" value="AddUserRepo" style="rounded=0;whiteSpace=wrap;html=1;fillColor=none;dashed=1;strokeColor=#000000;fontColor=#000000;" vertex="1" parent="1">
                    <mxGeometry x="510" y="5" width="100" height="40" as="geometry"/>
                </mxCell>
                <mxCell id="68" value="Usa interface" style="text;html=1;strokeColor=none;fillColor=none;align=center;verticalAlign=middle;whiteSpace=wrap;rounded=0;dashed=1;fontColor=#000000;" vertex="1" parent="1">
                    <mxGeometry x="450" y="50" width="60" height="30" as="geometry"/>
                </mxCell>
                <mxCell id="69" value="Usa interface" style="text;html=1;strokeColor=none;fillColor=none;align=center;verticalAlign=middle;whiteSpace=wrap;rounded=0;dashed=1;fontColor=#000000;" vertex="1" parent="1">
                    <mxGeometry x="490" y="220" width="60" height="30" as="geometry"/>
                </mxCell>
                <mxCell id="70" value="&lt;span style=&quot;color: rgb(240 , 240 , 240) ; font-family: &amp;#34;helvetica&amp;#34; ; font-size: 12px ; font-style: normal ; font-weight: 400 ; letter-spacing: normal ; text-align: center ; text-indent: 0px ; text-transform: none ; word-spacing: 0px ; background-color: rgb(42 , 42 , 42) ; display: inline ; float: none&quot;&gt;Frameworks sempre ficam na ponta da arquitetura, na camada mais externa&lt;/span&gt;" style="text;whiteSpace=wrap;html=1;" vertex="1" parent="1">
                    <mxGeometry x="477.5" y="-300" width="400" height="30" as="geometry"/>
                </mxCell>
                <mxCell id="71" value="Para desacoplar as camadas é preciso acoplar uma delas, assim, a Main Layer será responsável por criar instâncias de todos os objetos definidos na arquitetura, portanto, ela ficará acoplada." style="text;html=1;strokeColor=none;fillColor=none;align=center;verticalAlign=middle;whiteSpace=wrap;rounded=0;" vertex="1" parent="1">
                    <mxGeometry x="220" y="650" width="375" height="30" as="geometry"/>
                </mxCell>
                <mxCell id="73" value="&lt;span style=&quot;font-family: &amp;#34;helvetica&amp;#34; ; font-size: 12px ; font-style: normal ; letter-spacing: normal ; text-align: center ; text-indent: 0px ; text-transform: none ; word-spacing: 0px ; background-color: rgb(42 , 42 , 42) ; display: inline ; float: none&quot;&gt;&lt;font color=&quot;#ffffff&quot;&gt;Main&lt;/font&gt;&lt;/span&gt;" style="text;whiteSpace=wrap;html=1;" vertex="1" parent="1">
                    <mxGeometry x="620" y="340" width="30" height="30" as="geometry"/>
                </mxCell>
                <mxCell id="80" value="LoadUserByEmailRepo" style="rounded=0;whiteSpace=wrap;html=1;fillColor=none;dashed=1;strokeColor=#000000;fontColor=#000000;" vertex="1" parent="1">
                    <mxGeometry x="310" width="140" height="40" as="geometry"/>
                </mxCell>
                <mxCell id="86" style="edgeStyle=orthogonalEdgeStyle;rounded=0;html=1;fontColor=#000000;strokeColor=#000000;" edge="1" parent="1" source="85" target="63">
                    <mxGeometry relative="1" as="geometry">
                        <Array as="points">
                            <mxPoint x="399" y="-164"/>
                            <mxPoint x="450" y="-164"/>
                        </Array>
                    </mxGeometry>
                </mxCell>
                <mxCell id="87" style="edgeStyle=orthogonalEdgeStyle;rounded=0;html=1;fontColor=#000000;strokeColor=#000000;" edge="1" parent="1" source="85" target="80">
                    <mxGeometry relative="1" as="geometry"/>
                </mxCell>
                <mxCell id="85" value="LoadUserByEmailMongoRepo" style="rounded=0;whiteSpace=wrap;html=1;fillColor=none;fontColor=#000000;strokeColor=#000000;" vertex="1" parent="1">
                    <mxGeometry x="288.75" y="-136.25" width="182.5" height="42.5" as="geometry"/>
                </mxCell>
            </root>
        </mxGraphModel>
    </diagram>
</mxfile>